<mxfile host="app.diagrams.net" modified="2023-06-21T13:52:11.501Z" agent="Mozilla/5.0 (Windows NT 10.0; Win64; x64; rv:109.0) Gecko/20100101 Firefox/114.0" etag="l2fhtKnZI4jzwL684W8c" version="21.3.8" type="device">
  <diagram name="Page-1" id="bndg_6HbLod__y72PkgO">
    <mxGraphModel dx="2394" dy="2045" grid="1" gridSize="10" guides="1" tooltips="1" connect="1" arrows="1" fold="1" page="1" pageScale="1" pageWidth="1169" pageHeight="827" math="0" shadow="0">
      <root>
        <mxCell id="0" />
        <mxCell id="1" parent="0" />
        <mxCell id="MZZLFY8sG3nS4H8BUjIp-1" value="OpenNMS Core" style="html=1;overflow=block;blockSpacing=1;whiteSpace=wrap;fontSize=21.7;fontFamily=Open Sans;fontColor=#0081ad;fontStyle=1;spacing=0;fillColor=#ffffff;strokeWidth=1.5;strokeColor=none;lucidId=zju5B.KJovt9;" parent="1" vertex="1">
          <mxGeometry x="89" y="915" width="180" height="45" as="geometry" />
        </mxCell>
        <mxCell id="MZZLFY8sG3nS4H8BUjIp-2" value="&lt;div style=&quot;display: flex; justify-content: flex-start; text-align: left; align-items: baseline; font-size: 0; line-height: 1.25;margin-top: -2px;&quot;&gt;&lt;span&gt;&lt;span style=&quot;font-size:28.3px;color:#000000;font-family: Open Sans;&quot;&gt;&lt;span style=&quot;font-size:28.3px;color:#000000;font-family: Open Sans;&quot;&gt;Make sure you&#39;re using&lt;/span&gt;&lt;span style=&quot;font-size:28.3px;color:#000000;font-weight: bold;font-family: Open Sans;&quot;&gt; Open Sans.&lt;/span&gt; This can be enabled from the font dropdown under Manage Fonts.&lt;/span&gt;&lt;/span&gt;&lt;/div&gt;" style="html=1;overflow=block;blockSpacing=1;whiteSpace=wrap;fontSize=13;fontFamily=Open Sans;spacing=0;verticalAlign=top;fillColor=#ffffff;strokeWidth=1.5;strokeColor=none;lucidId=u~J5iqpsuY0v;" parent="1" vertex="1">
          <mxGeometry x="55" y="-297" width="513" height="114" as="geometry" />
        </mxCell>
        <mxCell id="MZZLFY8sG3nS4H8BUjIp-3" value="" style="html=1;overflow=block;blockSpacing=1;whiteSpace=wrap;fontSize=13;spacing=3.8;strokeOpacity=0;rounded=1;absoluteArcSize=1;arcSize=30;shadow=1;strokeWidth=3;lucidId=ric5MCYMHBP8;fontFamily=Open Sans;" parent="1" vertex="1">
          <mxGeometry x="55" y="43" width="366" height="248" as="geometry" />
        </mxCell>
        <mxCell id="MZZLFY8sG3nS4H8BUjIp-4" value="&lt;div style=&quot;display: flex; justify-content: flex-start; text-align: left; align-items: baseline; font-size: 0; line-height: 1.25;margin-top: -2px;&quot;&gt;&lt;span&gt;&lt;span style=&quot;font-size:16.7px;color:#000000;font-weight: bold;font-family: Open Sans;&quot;&gt;Connectors:&lt;/span&gt;&lt;span style=&quot;font-size:16.7px;color:#000000;font-family: Open Sans;&quot;&gt; &#xa;&lt;/span&gt;&lt;/span&gt;&lt;/div&gt;&lt;div style=&quot;display: flex; justify-content: flex-start; text-align: left; align-items: baseline; font-size: 0; line-height: 1.25;margin-top: -2px;&quot;&gt;&lt;span&gt;&lt;span style=&quot;font-size:16.7px;color:#000000;font-family: Open Sans;&quot;&gt;&lt;span style=&quot;font-size:16.7px;color:#000000;font-family: Open Sans;&quot;&gt;&#x9;Weight: 5px&#xa;&lt;/span&gt;&lt;/span&gt;&lt;/span&gt;&lt;/div&gt;&lt;div style=&quot;display: flex; justify-content: flex-start; text-align: left; align-items: baseline; font-size: 0; line-height: 1.25;margin-top: -2px;&quot;&gt;&lt;span&gt;&lt;span style=&quot;font-size:16.7px;color:#000000;font-family: Open Sans;&quot;&gt;&#x9;Corner radius: 20px&lt;/span&gt;&lt;/span&gt;&lt;/div&gt;" style="html=1;overflow=block;blockSpacing=1;whiteSpace=wrap;fontSize=13;fontFamily=Open Sans;spacing=0;verticalAlign=middle;fillColor=#ffffff;strokeWidth=1.5;strokeColor=none;lucidId=Zyu5JnFz.BKX;" parent="1" vertex="1">
          <mxGeometry x="568" y="119" width="202" height="67" as="geometry" />
        </mxCell>
        <mxCell id="MZZLFY8sG3nS4H8BUjIp-5" value="Can be added to various elements to show they are secured" style="html=1;overflow=block;blockSpacing=1;whiteSpace=wrap;fontSize=16;fontFamily=Open Sans;fontColor=#0a0c1b;align=left;spacing=0;fillColor=#ffffff;strokeWidth=1.5;strokeColor=none;lucidId=X4v5.~2.i2FQ;" parent="1" vertex="1">
          <mxGeometry x="1498" y="883" width="180" height="45" as="geometry" />
        </mxCell>
        <mxCell id="MZZLFY8sG3nS4H8BUjIp-6" value="General Components" style="html=1;overflow=block;blockSpacing=1;whiteSpace=wrap;fontSize=33.3;fontFamily=Open Sans;fontColor=default;fontStyle=1;align=left;spacing=0;verticalAlign=middle;fillColor=#ffffff;strokeWidth=1.5;strokeColor=none;lucidId=Pgu5.jD_dt-C;" parent="1" vertex="1">
          <mxGeometry x="55" y="-44" width="366" height="41" as="geometry" />
        </mxCell>
        <mxCell id="MZZLFY8sG3nS4H8BUjIp-7" value="&lt;div style=&quot;display: flex; justify-content: flex-start; text-align: left; align-items: baseline; font-size: 0; line-height: 1.25;margin-top: -2px;&quot;&gt;&lt;span&gt;&lt;span style=&quot;font-size:18.7px;color:#0a0c1b;font-weight: bold;font-style: italic;font-family: Open Sans;&quot;&gt;Note: &lt;/span&gt;&lt;span style=&quot;font-size:18.7px;color:#0a0c1b;font-style: italic;font-family: Open Sans;&quot;&gt;Sections can be highlighted by adding a colored outline from our palette&lt;/span&gt;&lt;/span&gt;&lt;/div&gt;" style="html=1;overflow=block;blockSpacing=1;whiteSpace=wrap;fontSize=13;fontFamily=Open Sans;spacing=0;fillColor=#ffffff;strokeWidth=1.5;strokeColor=none;lucidId=L7v5mgof9..T;" parent="1" vertex="1">
          <mxGeometry x="332" y="398" width="356" height="102" as="geometry" />
        </mxCell>
        <mxCell id="MZZLFY8sG3nS4H8BUjIp-8" value="These logos should always appear in one of the base options from the general components section depending on context/fuctionality. If unsure, use the standalone square." style="html=1;overflow=block;blockSpacing=1;whiteSpace=wrap;fontSize=18.3;fontFamily=Open Sans;fontColor=default;align=left;spacing=0;fillColor=#ffffff;strokeWidth=1.5;strokeColor=none;lucidId=0oK5Mql8XqN6;" parent="1" vertex="1">
          <mxGeometry x="55" y="1135" width="885" height="60" as="geometry" />
        </mxCell>
        <mxCell id="MZZLFY8sG3nS4H8BUjIp-9" value="Section / container" style="html=1;overflow=block;blockSpacing=1;whiteSpace=wrap;fontSize=16.7;fontFamily=Open Sans;fontColor=#3a414a;spacing=0;fillColor=#ffffff;strokeWidth=1.5;strokeColor=none;lucidId=tAc5S.Fp~JGP;" parent="1" vertex="1">
          <mxGeometry x="148" y="145" width="180" height="45" as="geometry" />
        </mxCell>
        <mxCell id="MZZLFY8sG3nS4H8BUjIp-10" value="" style="html=1;overflow=block;blockSpacing=1;whiteSpace=wrap;shape=image;fontSize=13;spacing=0;strokeColor=none;strokeOpacity=100;strokeWidth=0;image=https://images.lucid.app/images/5472e353-eccc-489e-b336-a72ee8aeef16/content;imageAspect=0;lucidId=.fu5y_rloNG-;fontFamily=Open Sans;" parent="1" vertex="1">
          <mxGeometry x="1311" y="797" width="116" height="92" as="geometry" />
        </mxCell>
        <mxCell id="MZZLFY8sG3nS4H8BUjIp-11" value="" style="html=1;overflow=block;blockSpacing=1;whiteSpace=wrap;shape=image;fontSize=13;spacing=0;strokeColor=none;strokeOpacity=100;strokeWidth=0;image=https://images.lucid.app/images/3ad8bf26-bbdb-43cf-a560-4ae72fd0821f/content;imageAspect=0;lucidId=.fu594fQWRPk;fontFamily=Open Sans;" parent="1" vertex="1">
          <mxGeometry x="1103" y="779" width="116" height="105" as="geometry" />
        </mxCell>
        <mxCell id="MZZLFY8sG3nS4H8BUjIp-12" value="" style="html=1;overflow=block;blockSpacing=1;whiteSpace=wrap;shape=image;fontSize=13;spacing=0;strokeColor=none;strokeOpacity=100;strokeWidth=0;image=https://images.lucid.app/images/171d9a3c-cea1-463e-8c95-2c81a1bb0272/content;imageAspect=0;lucidId=.fu5LJD.LmQP;fontFamily=Open Sans;" parent="1" vertex="1">
          <mxGeometry x="887" y="784" width="148" height="111" as="geometry" />
        </mxCell>
        <mxCell id="MZZLFY8sG3nS4H8BUjIp-13" value="" style="html=1;overflow=block;blockSpacing=1;whiteSpace=wrap;shape=image;fontSize=13;spacing=0;strokeColor=none;strokeOpacity=100;strokeWidth=0;image=https://images.lucid.app/images/44df720f-0573-43d3-9890-4625ea51397c/content;imageAspect=0;lucidId=.fu5ANJ94AXC;fontFamily=Open Sans;" parent="1" vertex="1">
          <mxGeometry x="508" y="756" width="116" height="140" as="geometry" />
        </mxCell>
        <mxCell id="MZZLFY8sG3nS4H8BUjIp-14" value="" style="html=1;overflow=block;blockSpacing=1;whiteSpace=wrap;shape=image;fontSize=13;spacing=0;strokeColor=none;strokeOpacity=100;strokeWidth=0;image=https://images.lucid.app/images/3a489838-fbe0-475a-a1be-f1187df631ab/content;imageAspect=0;lucidId=.fu5iSn76eK6;fontFamily=Open Sans;" parent="1" vertex="1">
          <mxGeometry x="85" y="711" width="189" height="189" as="geometry" />
        </mxCell>
        <mxCell id="MZZLFY8sG3nS4H8BUjIp-15" value="" style="html=1;overflow=block;blockSpacing=1;whiteSpace=wrap;shape=image;fontSize=13;spacing=0;strokeColor=none;strokeOpacity=100;strokeWidth=0;image=https://images.lucid.app/images/2347a9c7-afa0-4b62-bfe7-c894170efaed/content;imageAspect=0;lucidId=.fu5ZfZvDn3Q;fontFamily=Open Sans;" parent="1" vertex="1">
          <mxGeometry x="1498" y="823" width="36" height="36" as="geometry" />
        </mxCell>
        <mxCell id="MZZLFY8sG3nS4H8BUjIp-16" value="" style="html=1;overflow=block;blockSpacing=1;whiteSpace=wrap;shape=image;fontSize=13;spacing=0;strokeColor=none;strokeOpacity=100;strokeWidth=0;image=https://images.lucid.app/images/04578b9f-18ee-4a82-b7c5-295ed1ff598c/content;imageAspect=0;lucidId=.fu5QygyBlzZ;fontFamily=Open Sans;" parent="1" vertex="1">
          <mxGeometry x="1551" y="823" width="36" height="36" as="geometry" />
        </mxCell>
        <mxCell id="MZZLFY8sG3nS4H8BUjIp-17" value="" style="html=1;overflow=block;blockSpacing=1;whiteSpace=wrap;shape=image;fontSize=13;spacing=0;strokeColor=none;strokeOpacity=100;strokeWidth=0;image=https://images.lucid.app/images/bc0f5393-ec9d-478d-82fb-f774c271548a/content;imageAspect=0;lucidId=.fu5dMUcAAwf;fontFamily=Open Sans;" parent="1" vertex="1">
          <mxGeometry x="332" y="765" width="122" height="123" as="geometry" />
        </mxCell>
        <mxCell id="MZZLFY8sG3nS4H8BUjIp-18" value="" style="html=1;overflow=block;blockSpacing=1;whiteSpace=wrap;shape=image;fontSize=13;spacing=0;strokeColor=none;strokeOpacity=100;strokeWidth=0;image=https://images.lucid.app/images/e2a51fa7-d241-4499-b360-696d473907bc/content;imageAspect=0;lucidId=.fu5Vhg79vKl;fontFamily=Open Sans;" parent="1" vertex="1">
          <mxGeometry x="688" y="784" width="110" height="109" as="geometry" />
        </mxCell>
        <mxCell id="MZZLFY8sG3nS4H8BUjIp-19" value="OpenNMS Products" style="html=1;overflow=block;blockSpacing=1;whiteSpace=wrap;fontSize=33.3;fontFamily=Open Sans;fontColor=default;fontStyle=1;align=left;spacing=0;verticalAlign=middle;fillColor=#ffffff;strokeWidth=1.5;strokeColor=none;lucidId=nhu5tQ3tyXj_;" parent="1" vertex="1">
          <mxGeometry x="55" y="637" width="366" height="41" as="geometry" />
        </mxCell>
        <mxCell id="MZZLFY8sG3nS4H8BUjIp-20" value="Sentinel" style="html=1;overflow=block;blockSpacing=1;whiteSpace=wrap;fontSize=21.7;fontFamily=Open Sans;fontColor=#0081ad;fontStyle=1;spacing=0;fillColor=#ffffff;strokeWidth=1.5;strokeColor=none;lucidId=5ku5S6JakEAl;" parent="1" vertex="1">
          <mxGeometry x="303" y="915" width="180" height="45" as="geometry" />
        </mxCell>
        <mxCell id="MZZLFY8sG3nS4H8BUjIp-21" value="Minion" style="html=1;overflow=block;blockSpacing=1;whiteSpace=wrap;fontSize=21.7;fontFamily=Open Sans;fontColor=#0081ad;fontStyle=1;spacing=0;fillColor=#ffffff;strokeWidth=1.5;strokeColor=none;lucidId=Dmu5dPfjYkeO;" parent="1" vertex="1">
          <mxGeometry x="482" y="915" width="180" height="45" as="geometry" />
        </mxCell>
        <mxCell id="MZZLFY8sG3nS4H8BUjIp-22" value="Time Series DB" style="html=1;overflow=block;blockSpacing=1;whiteSpace=wrap;fontSize=21.7;fontFamily=Open Sans;fontColor=#0081ad;fontStyle=1;spacing=0;fillColor=#ffffff;strokeWidth=1.5;strokeColor=none;lucidId=pxu5y2nLOCHi;" parent="1" vertex="1">
          <mxGeometry x="664" y="915" width="180" height="45" as="geometry" />
        </mxCell>
        <mxCell id="MZZLFY8sG3nS4H8BUjIp-23" value="" style="html=1;jettySize=18;whiteSpace=wrap;fontSize=13;strokeColor=#0081ad;strokeOpacity=100;strokeWidth=3.8;rounded=1;arcSize=40;edgeStyle=orthogonalEdgeStyle;startArrow=none;endArrow=none;exitX=1;exitY=0.5;exitPerimeter=0;lucidId=4xu5b9Wr1toP;fontFamily=Open Sans;" parent="1" source="MZZLFY8sG3nS4H8BUjIp-3" edge="1">
          <mxGeometry width="100" height="100" relative="1" as="geometry">
            <Array as="points" />
            <mxPoint x="611" y="69" as="targetPoint" />
          </mxGeometry>
        </mxCell>
        <mxCell id="MZZLFY8sG3nS4H8BUjIp-24" value="&lt;div style=&quot;display: flex; justify-content: flex-start; text-align: left; align-items: baseline; font-size: 0; line-height: 1.25;margin-top: -2px;&quot;&gt;&lt;span&gt;&lt;span style=&quot;font-size:18.7px;color:#000000;font-style: italic;font-family: Open Sans;&quot;&gt;Different types of connections can be shown through a color key. Use OpenNMS brand colors.&lt;/span&gt;&lt;span style=&quot;font-size:16px;color:#000000;font-family: Open Sans;&quot;&gt;&#xa;&lt;/span&gt;&lt;/span&gt;&lt;/div&gt;&lt;div style=&quot;display: flex; justify-content: flex-start; text-align: left; align-items: baseline; font-size: 0; line-height: 1.25;margin-top: -2px;&quot;&gt;&lt;span&gt;&lt;span style=&quot;font-size:13px;color:#000000;font-family: Open Sans;&quot;&gt;&lt;span style=&quot;font-size:18.7px;color:#000000;font-style: italic;font-family: Open Sans;&quot;&gt;&#xa;&lt;/span&gt;&lt;/span&gt;&lt;/span&gt;&lt;/div&gt;&lt;div style=&quot;display: flex; justify-content: flex-start; text-align: left; align-items: baseline; font-size: 0; line-height: 1.25;margin-top: -2px;&quot;&gt;&lt;span&gt;&lt;span style=&quot;font-size:18.7px;color:#000000;font-style: italic;font-family: Open Sans;&quot;&gt;The most prevalent line color should always be in either Marine blue (above) or navy.&lt;/span&gt;&lt;/span&gt;&lt;/div&gt;" style="html=1;overflow=block;blockSpacing=1;whiteSpace=wrap;fontSize=13;fontFamily=Open Sans;spacing=0;verticalAlign=middle;fillColor=#ffffff;strokeWidth=1.5;strokeColor=none;lucidId=SEu5p.2TgrNr;" parent="1" vertex="1">
          <mxGeometry x="466" y="230" width="406" height="119" as="geometry" />
        </mxCell>
        <mxCell id="MZZLFY8sG3nS4H8BUjIp-25" value="" style="html=1;overflow=block;blockSpacing=1;whiteSpace=wrap;shape=image;fontSize=13;spacing=0;strokeColor=none;strokeOpacity=100;strokeWidth=0;image=https://images.lucid.app/images/ba24726e-4224-40ff-9c24-bdb6003cc899/content;imageAspect=0;lucidId=YGu5Z~HXY3vS;fontFamily=Open Sans;" parent="1" vertex="1">
          <mxGeometry x="55" y="322" width="248" height="171" as="geometry" />
        </mxCell>
        <mxCell id="MZZLFY8sG3nS4H8BUjIp-26" value="Grafana Plugin" style="html=1;overflow=block;blockSpacing=1;whiteSpace=wrap;fontSize=21.7;fontFamily=Open Sans;fontColor=#0081ad;fontStyle=1;spacing=0;fillColor=#ffffff;strokeWidth=1.5;strokeColor=none;lucidId=pkv5Dbom8H8E;" parent="1" vertex="1">
          <mxGeometry x="878" y="915" width="180" height="45" as="geometry" />
        </mxCell>
        <mxCell id="MZZLFY8sG3nS4H8BUjIp-27" value="Elasticsearch Plugin" style="html=1;overflow=block;blockSpacing=1;whiteSpace=wrap;fontSize=21.7;fontFamily=Open Sans;fontColor=#0081ad;fontStyle=1;spacing=0;fillColor=#ffffff;strokeWidth=1.5;strokeColor=none;lucidId=0lv5PwfcYyJy;" parent="1" vertex="1">
          <mxGeometry x="1085" y="923" width="180" height="45" as="geometry" />
        </mxCell>
        <mxCell id="MZZLFY8sG3nS4H8BUjIp-28" value="Appliance" style="html=1;overflow=block;blockSpacing=1;whiteSpace=wrap;fontSize=21.7;fontFamily=Open Sans;fontColor=#0081ad;fontStyle=1;spacing=0;fillColor=#ffffff;strokeWidth=1.5;strokeColor=none;lucidId=hOv5Fr76iF1K;" parent="1" vertex="1">
          <mxGeometry x="1276" y="915" width="180" height="45" as="geometry" />
        </mxCell>
        <mxCell id="MZZLFY8sG3nS4H8BUjIp-29" value="" style="html=1;overflow=block;blockSpacing=1;whiteSpace=wrap;shape=image;fontSize=13;spacing=0;strokeColor=none;strokeOpacity=100;strokeWidth=0;image=https://images.lucid.app/images/c3f28bda-f083-43b4-a434-f90847b3877b/content;imageAspect=0;lucidId=bdw5KDOg3mr0;fontFamily=Open Sans;" parent="1" vertex="1">
          <mxGeometry x="1777" y="75" width="47" height="53" as="geometry" />
        </mxCell>
        <mxCell id="MZZLFY8sG3nS4H8BUjIp-30" value="" style="html=1;overflow=block;blockSpacing=1;whiteSpace=wrap;shape=image;fontSize=13;spacing=0;strokeColor=none;strokeOpacity=100;strokeWidth=0;image=https://images.lucid.app/images/27a001e2-4f24-4617-8cf3-ec4b07b10480/content;imageAspect=0;lucidId=bdw5M0KgGm.f;fontFamily=Open Sans;" parent="1" vertex="1">
          <mxGeometry x="2037" y="180" width="119" height="119" as="geometry" />
        </mxCell>
        <mxCell id="MZZLFY8sG3nS4H8BUjIp-31" value="" style="html=1;overflow=block;blockSpacing=1;whiteSpace=wrap;shape=image;fontSize=13;spacing=0;strokeColor=none;strokeOpacity=100;strokeWidth=0;image=https://images.lucid.app/images/05a396fb-ea46-44fb-b107-79510ec2fad5/content;imageAspect=0;lucidId=bdw50fTOazWv;fontFamily=Open Sans;" parent="1" vertex="1">
          <mxGeometry x="1504" y="69" width="126" height="111" as="geometry" />
        </mxCell>
        <mxCell id="MZZLFY8sG3nS4H8BUjIp-32" value="" style="html=1;overflow=block;blockSpacing=1;whiteSpace=wrap;shape=image;fontSize=13;spacing=0;strokeColor=none;strokeOpacity=100;strokeWidth=0;image=https://images.lucid.app/images/83168ebf-470b-494e-8f27-33f36384b834/content;imageAspect=0;lucidId=bdw5FAcFgu8Q;fontFamily=Open Sans;" parent="1" vertex="1">
          <mxGeometry x="1689" y="340" width="123" height="155" as="geometry" />
        </mxCell>
        <mxCell id="MZZLFY8sG3nS4H8BUjIp-33" value="" style="html=1;overflow=block;blockSpacing=1;whiteSpace=wrap;shape=image;fontSize=13;spacing=0;strokeColor=none;strokeOpacity=100;strokeWidth=0;image=https://images.lucid.app/images/2ee59782-fae7-4b09-9660-0a455594c2f7/content;imageAspect=0;lucidId=bdw58KujMOw7;fontFamily=Open Sans;" parent="1" vertex="1">
          <mxGeometry x="1688" y="215" width="87" height="113" as="geometry" />
        </mxCell>
        <mxCell id="MZZLFY8sG3nS4H8BUjIp-34" value="" style="html=1;overflow=block;blockSpacing=1;whiteSpace=wrap;shape=image;fontSize=13;spacing=0;strokeColor=none;strokeOpacity=100;strokeWidth=0;image=https://images.lucid.app/images/34d52f33-0e11-45ad-98cd-c57d7d850f7d/content;imageAspect=0;lucidId=bdw58k3uZjrb;fontFamily=Open Sans;" parent="1" vertex="1">
          <mxGeometry x="1688" y="70" width="63" height="63" as="geometry" />
        </mxCell>
        <mxCell id="MZZLFY8sG3nS4H8BUjIp-35" value="" style="html=1;overflow=block;blockSpacing=1;whiteSpace=wrap;shape=image;fontSize=13;spacing=0;strokeColor=none;strokeOpacity=100;strokeWidth=0;image=https://images.lucid.app/images/9f0757ab-12e8-4cfc-a0d7-ca9bdefe9546/content;imageAspect=0;lucidId=bdw5eGDMUwP0;fontFamily=Open Sans;" parent="1" vertex="1">
          <mxGeometry x="1352" y="69" width="126" height="111" as="geometry" />
        </mxCell>
        <mxCell id="MZZLFY8sG3nS4H8BUjIp-36" value="" style="html=1;overflow=block;blockSpacing=1;whiteSpace=wrap;shape=image;fontSize=13;spacing=0;strokeColor=none;strokeOpacity=100;strokeWidth=0;image=https://images.lucid.app/images/11effb1d-0b73-4fa4-89ec-dc3c35e5eae8/content;imageAspect=0;lucidId=bdw52QodJWZa;fontFamily=Open Sans;" parent="1" vertex="1">
          <mxGeometry x="1850" y="79" width="58" height="45" as="geometry" />
        </mxCell>
        <mxCell id="MZZLFY8sG3nS4H8BUjIp-37" value="" style="html=1;overflow=block;blockSpacing=1;whiteSpace=wrap;shape=image;fontSize=13;spacing=0;strokeColor=none;strokeOpacity=100;strokeWidth=0;image=https://images.lucid.app/images/d2099b05-962a-478b-9214-eb78d16a46de/content;imageAspect=0;lucidId=bdw5lc8vcmBf;fontFamily=Open Sans;" parent="1" vertex="1">
          <mxGeometry x="2097" y="329" width="83" height="104" as="geometry" />
        </mxCell>
        <mxCell id="MZZLFY8sG3nS4H8BUjIp-38" value="" style="html=1;overflow=block;blockSpacing=1;whiteSpace=wrap;shape=image;fontSize=13;spacing=0;strokeColor=none;strokeOpacity=100;strokeWidth=0;image=https://images.lucid.app/images/73f687ef-7dad-468c-afc4-3f9401b6b3f8/content;imageAspect=0;lucidId=bdw5pU.ruw7a;fontFamily=Open Sans;" parent="1" vertex="1">
          <mxGeometry x="1352" y="213" width="126" height="111" as="geometry" />
        </mxCell>
        <mxCell id="MZZLFY8sG3nS4H8BUjIp-39" value="" style="html=1;overflow=block;blockSpacing=1;whiteSpace=wrap;shape=image;fontSize=13;spacing=0;strokeColor=none;strokeOpacity=100;strokeWidth=0;image=https://images.lucid.app/images/8b8660be-4578-49cf-b28f-ca5eeda7e01e/content;imageAspect=0;lucidId=bdw5ODic5Ywx;fontFamily=Open Sans;" parent="1" vertex="1">
          <mxGeometry x="1504" y="357" width="126" height="111" as="geometry" />
        </mxCell>
        <mxCell id="MZZLFY8sG3nS4H8BUjIp-40" value="" style="html=1;overflow=block;blockSpacing=1;whiteSpace=wrap;shape=image;fontSize=13;spacing=0;strokeColor=none;strokeOpacity=100;strokeWidth=0;image=https://images.lucid.app/images/e68cb6dc-e71e-4bed-8641-ef6560069d8f/content;imageAspect=0;lucidId=bdw5~378FL_E;fontFamily=Open Sans;" parent="1" vertex="1">
          <mxGeometry x="1352" y="357" width="126" height="111" as="geometry" />
        </mxCell>
        <mxCell id="MZZLFY8sG3nS4H8BUjIp-41" value="" style="html=1;overflow=block;blockSpacing=1;whiteSpace=wrap;shape=image;fontSize=13;spacing=0;strokeColor=none;strokeOpacity=100;strokeWidth=0;image=https://images.lucid.app/images/bff31642-8df5-445d-b670-425f9b403ab4/content;imageAspect=0;lucidId=bdw5IprZ_HtF;fontFamily=Open Sans;" parent="1" vertex="1">
          <mxGeometry x="1504" y="213" width="126" height="111" as="geometry" />
        </mxCell>
        <mxCell id="MZZLFY8sG3nS4H8BUjIp-42" value="" style="html=1;overflow=block;blockSpacing=1;whiteSpace=wrap;shape=image;fontSize=13;spacing=0;strokeColor=none;strokeOpacity=100;strokeWidth=0;image=https://images.lucid.app/images/4c22117a-c234-429e-aea7-e081bbfd03cb/content;imageAspect=0;lucidId=bdw5pTr6mY-C;fontFamily=Open Sans;" parent="1" vertex="1">
          <mxGeometry x="1865" y="261" width="199" height="243" as="geometry" />
        </mxCell>
        <mxCell id="MZZLFY8sG3nS4H8BUjIp-43" value="" style="html=1;overflow=block;blockSpacing=1;whiteSpace=wrap;shape=image;fontSize=13;spacing=0;strokeColor=none;strokeOpacity=100;shadow=1;strokeWidth=0;image=https://images.lucid.app/images/7f7ed325-6998-41ca-8c18-540b6fe41eda/content;imageAspect=0;lucidId=tQw5a9ljrcsI;fontFamily=Open Sans;" parent="1" vertex="1">
          <mxGeometry x="1157" y="52" width="84" height="93" as="geometry" />
        </mxCell>
        <mxCell id="MZZLFY8sG3nS4H8BUjIp-44" value="" style="html=1;overflow=block;blockSpacing=1;whiteSpace=wrap;shape=image;fontSize=13;spacing=0;strokeColor=none;strokeOpacity=100;shadow=1;strokeWidth=0;image=https://images.lucid.app/images/9a8b5f4f-5257-431a-89b2-54f556faa4d5/content;imageAspect=0;lucidId=tQw5LzGpHCT3;fontFamily=Open Sans;" parent="1" vertex="1">
          <mxGeometry x="917" y="187" width="104" height="104" as="geometry" />
        </mxCell>
        <mxCell id="MZZLFY8sG3nS4H8BUjIp-45" value="" style="html=1;overflow=block;blockSpacing=1;whiteSpace=wrap;shape=image;fontSize=13;spacing=0;strokeColor=none;strokeOpacity=100;shadow=1;strokeWidth=0;image=https://images.lucid.app/images/be5bac2d-0743-49a2-bb93-1c66a641d8ed/content;imageAspect=0;lucidId=~Qw57iaNjTRF;fontFamily=Open Sans;" parent="1" vertex="1">
          <mxGeometry x="1040" y="56" width="74" height="85" as="geometry" />
        </mxCell>
        <mxCell id="MZZLFY8sG3nS4H8BUjIp-46" value="" style="html=1;overflow=block;blockSpacing=1;whiteSpace=wrap;shape=image;fontSize=13;spacing=0;strokeColor=none;strokeOpacity=100;shadow=1;strokeWidth=0;image=https://images.lucid.app/images/475a5584-ef64-4faa-8aa0-dd0fcc450fbd/content;imageAspect=0;lucidId=~Qw5hDSRshFr;fontFamily=Open Sans;" parent="1" vertex="1">
          <mxGeometry x="917" y="59" width="78" height="78" as="geometry" />
        </mxCell>
        <mxCell id="MZZLFY8sG3nS4H8BUjIp-47" value="" style="html=1;overflow=block;blockSpacing=1;whiteSpace=wrap;shape=image;fontSize=13;spacing=0;strokeColor=none;strokeOpacity=100;shadow=1;strokeWidth=0;image=https://images.lucid.app/images/f9080be1-a921-4c90-9ce2-72e190f835f1/content;imageAspect=0;lucidId=~Qw52djpoioF;fontFamily=Open Sans;" parent="1" vertex="1">
          <mxGeometry x="1212" y="187" width="94" height="99" as="geometry" />
        </mxCell>
        <mxCell id="MZZLFY8sG3nS4H8BUjIp-48" value="" style="html=1;overflow=block;blockSpacing=1;whiteSpace=wrap;shape=image;fontSize=13;spacing=0;strokeColor=none;strokeOpacity=100;shadow=1;strokeWidth=0;image=https://images.lucid.app/images/c52bc15a-cdd4-4a54-b01d-2cc38f737163/content;imageAspect=0;lucidId=sVw5aHggeMnh;fontFamily=Open Sans;" parent="1" vertex="1">
          <mxGeometry x="897" y="338" width="228" height="144" as="geometry" />
        </mxCell>
        <mxCell id="MZZLFY8sG3nS4H8BUjIp-49" value="" style="html=1;overflow=block;blockSpacing=1;whiteSpace=wrap;shape=image;fontSize=13;spacing=0;strokeColor=none;strokeOpacity=100;shadow=1;strokeWidth=0;image=https://images.lucid.app/images/ee23e004-a139-426f-825e-eb63145a2f65/content;imageAspect=0;lucidId=O2w5xoCF36QU;fontFamily=Open Sans;" parent="1" vertex="1">
          <mxGeometry x="1044" y="187" width="141" height="104" as="geometry" />
        </mxCell>
        <mxCell id="MZZLFY8sG3nS4H8BUjIp-50" value="" style="html=1;overflow=block;blockSpacing=1;whiteSpace=wrap;shape=image;fontSize=13;spacing=0;strokeColor=none;strokeOpacity=100;shadow=1;strokeWidth=0;image=https://images.lucid.app/images/96502084-bee5-4501-b55f-b21c6bc08333/content;imageAspect=0;lucidId=c5w5a4Sc7gwa;fontFamily=Open Sans;" parent="1" vertex="1">
          <mxGeometry x="2195" y="201" width="115" height="78" as="geometry" />
        </mxCell>
        <mxCell id="MZZLFY8sG3nS4H8BUjIp-51" value="Company Logos" style="html=1;overflow=block;blockSpacing=1;whiteSpace=wrap;fontSize=33.3;fontFamily=Open Sans;fontColor=default;fontStyle=1;align=left;spacing=0;verticalAlign=middle;fillColor=#ffffff;strokeWidth=1.5;strokeColor=none;lucidId=8ax5zexdkFSs;" parent="1" vertex="1">
          <mxGeometry x="55" y="1080" width="366" height="41" as="geometry" />
        </mxCell>
        <mxCell id="MZZLFY8sG3nS4H8BUjIp-52" value="" style="html=1;overflow=block;blockSpacing=1;whiteSpace=wrap;shape=image;fontSize=13;spacing=0;strokeColor=none;strokeOpacity=100;strokeWidth=0;image=https://images.lucid.app/images/3fcd4953-e791-4843-ba8d-aa1bf79df9d3/content;imageAspect=0;lucidId=sbx5lIYpxC5k;fontFamily=Open Sans;" parent="1" vertex="1">
          <mxGeometry x="449" y="1423" width="68" height="102" as="geometry" />
        </mxCell>
        <mxCell id="MZZLFY8sG3nS4H8BUjIp-53" value="" style="html=1;overflow=block;blockSpacing=1;whiteSpace=wrap;shape=image;fontSize=13;spacing=0;strokeColor=none;strokeOpacity=100;strokeWidth=0;image=https://images.lucid.app/images/0efd1a29-ee6e-416a-9e81-19a91a2fde7b/content;imageAspect=0;lucidId=sbx5AxnfxroC;fontFamily=Open Sans;" parent="1" vertex="1">
          <mxGeometry x="902" y="1432" width="61" height="86" as="geometry" />
        </mxCell>
        <mxCell id="MZZLFY8sG3nS4H8BUjIp-54" value="" style="html=1;overflow=block;blockSpacing=1;whiteSpace=wrap;shape=image;fontSize=13;spacing=0;strokeColor=none;strokeOpacity=100;strokeWidth=0;image=https://images.lucid.app/images/3ceb03c7-df20-4ca1-aa53-7175b5e8db12/content;imageAspect=0;lucidId=sbx5846PGYek;fontFamily=Open Sans;" parent="1" vertex="1">
          <mxGeometry x="850" y="1268" width="137" height="72" as="geometry" />
        </mxCell>
        <mxCell id="MZZLFY8sG3nS4H8BUjIp-55" value="" style="html=1;overflow=block;blockSpacing=1;whiteSpace=wrap;shape=image;fontSize=13;spacing=0;strokeColor=none;strokeOpacity=100;strokeWidth=0;image=https://images.lucid.app/images/a9cfc3ae-7b3e-460f-9fd7-226baf1e1aea/content;imageAspect=0;lucidId=sbx5rFC2oMYp;fontFamily=Open Sans;" parent="1" vertex="1">
          <mxGeometry x="384" y="1255" width="89" height="98" as="geometry" />
        </mxCell>
        <mxCell id="MZZLFY8sG3nS4H8BUjIp-56" value="" style="html=1;overflow=block;blockSpacing=1;whiteSpace=wrap;shape=image;fontSize=13;spacing=0;strokeColor=none;strokeOpacity=100;strokeWidth=0;image=https://images.lucid.app/images/a8452b01-e4ef-4f13-a267-d23374dbc43b/content;imageAspect=0;lucidId=sbx541GoMK52;fontFamily=Open Sans;" parent="1" vertex="1">
          <mxGeometry x="589" y="1432" width="65" height="84" as="geometry" />
        </mxCell>
        <mxCell id="MZZLFY8sG3nS4H8BUjIp-57" value="" style="html=1;overflow=block;blockSpacing=1;whiteSpace=wrap;shape=image;fontSize=13;spacing=0;strokeColor=none;strokeOpacity=100;strokeWidth=0;image=https://images.lucid.app/images/5f00665f-d03d-4115-8f7f-b8c0ebd27e12/content;imageAspect=0;lucidId=sbx5Ed0kXpkG;fontFamily=Open Sans;" parent="1" vertex="1">
          <mxGeometry x="703" y="1254" width="105" height="101" as="geometry" />
        </mxCell>
        <mxCell id="MZZLFY8sG3nS4H8BUjIp-58" value="" style="html=1;overflow=block;blockSpacing=1;whiteSpace=wrap;shape=image;fontSize=13;spacing=0;strokeColor=none;strokeOpacity=100;strokeWidth=0;image=https://images.lucid.app/images/c22f5068-c8e4-41f5-a8c2-72492f321333/content;imageAspect=0;lucidId=sbx5f2vSrvrS;fontFamily=Open Sans;" parent="1" vertex="1">
          <mxGeometry x="86" y="1418" width="112" height="103" as="geometry" />
        </mxCell>
        <mxCell id="MZZLFY8sG3nS4H8BUjIp-59" value="" style="html=1;overflow=block;blockSpacing=1;whiteSpace=wrap;shape=image;fontSize=13;spacing=0;strokeColor=none;strokeOpacity=100;strokeWidth=0;image=https://images.lucid.app/images/8f2dce4a-713a-457b-9e86-8a7a128e1f7a/content;imageAspect=0;lucidId=sbx5YAQa-h96;fontFamily=Open Sans;" parent="1" vertex="1">
          <mxGeometry x="81" y="1248" width="109" height="113" as="geometry" />
        </mxCell>
        <mxCell id="MZZLFY8sG3nS4H8BUjIp-60" value="" style="html=1;overflow=block;blockSpacing=1;whiteSpace=wrap;shape=image;fontSize=13;spacing=0;strokeColor=none;strokeOpacity=100;strokeWidth=0;image=https://images.lucid.app/images/bf86ea68-350d-42fd-8dcf-7367c4c3cc98/content;imageAspect=0;lucidId=sbx5ynKb1YLm;fontFamily=Open Sans;" parent="1" vertex="1">
          <mxGeometry x="271" y="1427" width="105" height="94" as="geometry" />
        </mxCell>
        <mxCell id="MZZLFY8sG3nS4H8BUjIp-61" value="" style="html=1;overflow=block;blockSpacing=1;whiteSpace=wrap;shape=image;fontSize=13;spacing=0;strokeColor=none;strokeOpacity=100;strokeWidth=0;image=https://images.lucid.app/images/7563c132-a2f7-4392-8e13-396fd3683247/content;imageAspect=0;lucidId=wbx5PpxkIokL;fontFamily=Open Sans;" parent="1" vertex="1">
          <mxGeometry x="532" y="1249" width="112" height="112" as="geometry" />
        </mxCell>
        <mxCell id="MZZLFY8sG3nS4H8BUjIp-62" value="" style="html=1;overflow=block;blockSpacing=1;whiteSpace=wrap;shape=image;fontSize=13;spacing=0;strokeColor=none;strokeOpacity=100;strokeWidth=0;image=https://images.lucid.app/images/1e087c46-3e58-498a-b395-c8d0efb96aa6/content;imageAspect=0;lucidId=zbx5.IvgLFgk;fontFamily=Open Sans;" parent="1" vertex="1">
          <mxGeometry x="236" y="1249" width="112" height="112" as="geometry" />
        </mxCell>
        <mxCell id="MZZLFY8sG3nS4H8BUjIp-63" value="" style="html=1;overflow=block;blockSpacing=1;whiteSpace=wrap;shape=image;fontSize=13;spacing=0;strokeColor=none;strokeOpacity=100;strokeWidth=0;image=https://images.lucid.app/images/695e4123-8966-49b3-8b13-9a9f8481cf44/content;imageAspect=0;lucidId=gix5GzNIZubu;fontFamily=Open Sans;" parent="1" vertex="1">
          <mxGeometry x="727" y="1418" width="102" height="103" as="geometry" />
        </mxCell>
        <mxCell id="MZZLFY8sG3nS4H8BUjIp-64" value="" style="html=1;overflow=block;blockSpacing=1;whiteSpace=wrap;shape=image;fontSize=13;spacing=0;strokeColor=none;strokeOpacity=100;strokeWidth=0;image=https://images.lucid.app/images/08bd20b3-6f3b-47e6-951a-84f8a6fddb27/content;lucidId=ZcK5EpoTTcqO;fontFamily=Open Sans;" parent="1" vertex="1">
          <mxGeometry x="580" y="-296" width="518" height="112" as="geometry" />
        </mxCell>
        <mxCell id="MZZLFY8sG3nS4H8BUjIp-65" value="&lt;div style=&quot;display: flex; justify-content: flex-start; text-align: left; align-items: baseline; font-size: 0; line-height: 1.25;margin-top: -2px;&quot;&gt;&lt;span&gt;&lt;span style=&quot;font-size:28.3px;color:#000000;font-family: Open Sans;&quot;&gt;This is the OpenNMS color palette. Eyedrop colors from here to easily add them into the Lucid palette for connectors and text. &#xa;&lt;/span&gt;&lt;/span&gt;&lt;/div&gt;&lt;div style=&quot;display: flex; justify-content: flex-start; text-align: left; align-items: baseline; font-size: 0; line-height: 1.25;margin-top: -2px;&quot;&gt;&lt;span&gt;&lt;span style=&quot;font-size:28.3px;color:#000000;font-family: Open Sans;&quot;&gt;&#xa;&lt;/span&gt;&lt;/span&gt;&lt;/div&gt;&lt;div style=&quot;display: flex; justify-content: flex-start; text-align: left; align-items: baseline; font-size: 0; line-height: 1.25;margin-top: -2px;&quot;&gt;&lt;span&gt;&lt;span style=&quot;font-size:13px;color:#000000;font-family: Open Sans;&quot;&gt;&lt;span style=&quot;font-size:25px;color:#000000;font-weight: bold;font-style: italic;font-family: Open Sans;&quot;&gt;Note:&lt;/span&gt;&lt;span style=&quot;font-size:25px;color:#000000;font-style: italic;font-family: Open Sans;&quot;&gt; Text should only appear in the darker neutrals and Marine (daker) blue. The remaining palette should primarily only be used to differenciate connection types. &lt;/span&gt;&lt;/span&gt;&lt;/span&gt;&lt;/div&gt;" style="html=1;overflow=block;blockSpacing=1;whiteSpace=wrap;fontSize=13;fontFamily=Open Sans;spacing=0;verticalAlign=top;fillColor=#ffffff;strokeWidth=1.5;strokeColor=none;lucidId=meK5~4iIuuc_;" parent="1" vertex="1">
          <mxGeometry x="1147" y="-297" width="951" height="188" as="geometry" />
        </mxCell>
        <mxCell id="MZZLFY8sG3nS4H8BUjIp-66" value="" style="html=1;overflow=block;blockSpacing=1;whiteSpace=wrap;shape=image;fontSize=13;spacing=0;strokeColor=none;strokeOpacity=100;strokeWidth=0;image=https://images.lucid.app/images/9a111ade-7b23-4af6-8405-e320fb777188/content;imageAspect=0;lucidId=47Z6RDcbWYUz;fontFamily=Open Sans;" parent="1" vertex="1">
          <mxGeometry x="1035" y="1248" width="90" height="103" as="geometry" />
        </mxCell>
        <mxCell id="MZZLFY8sG3nS4H8BUjIp-67" value="" style="html=1;overflow=block;blockSpacing=1;whiteSpace=wrap;shape=image;fontSize=13;spacing=0;strokeColor=none;strokeOpacity=100;strokeWidth=0;image=https://images.lucid.app/images/57282c90-18f7-486c-b047-6817dd617c8a/content;imageAspect=0;lucidId=47Z6WoOrK8Et;fontFamily=Open Sans;" parent="1" vertex="1">
          <mxGeometry x="1036" y="1426" width="75" height="92" as="geometry" />
        </mxCell>
        <mxCell id="MZZLFY8sG3nS4H8BUjIp-68" value="" style="html=1;overflow=block;blockSpacing=1;whiteSpace=wrap;shape=image;fontSize=13;spacing=0;strokeColor=none;strokeOpacity=100;strokeWidth=0;image=https://images.lucid.app/images/d6018293-98ae-4430-b9c7-ea897afcfa07/content;imageAspect=0;lucidId=Pdk79iDzu5ru;fontFamily=Open Sans;" parent="1" vertex="1">
          <mxGeometry x="1923" y="77" width="58" height="53" as="geometry" />
        </mxCell>
        <mxCell id="MZZLFY8sG3nS4H8BUjIp-69" value="" style="html=1;overflow=block;blockSpacing=1;whiteSpace=wrap;shape=image;fontSize=13;spacing=0;strokeColor=none;strokeOpacity=100;strokeWidth=0;image=https://images.lucid.app/images/029ee3a9-ff5e-4aa3-9049-141272e2f768/content;imageAspect=0;lucidId=Pdk7H0Z1nHF1;fontFamily=Open Sans;" parent="1" vertex="1">
          <mxGeometry x="2252" y="73" width="61" height="56" as="geometry" />
        </mxCell>
        <mxCell id="MZZLFY8sG3nS4H8BUjIp-70" value="" style="html=1;overflow=block;blockSpacing=1;whiteSpace=wrap;shape=image;fontSize=13;spacing=0;strokeColor=none;strokeOpacity=100;strokeWidth=0;image=https://images.lucid.app/images/4f8782ab-b1d3-4a16-a67c-9365e5f250ac/content;imageAspect=0;lucidId=Pdk7tmi9xvb2;fontFamily=Open Sans;" parent="1" vertex="1">
          <mxGeometry x="2004" y="73" width="53" height="56" as="geometry" />
        </mxCell>
        <mxCell id="MZZLFY8sG3nS4H8BUjIp-71" value="" style="html=1;overflow=block;blockSpacing=1;whiteSpace=wrap;shape=image;fontSize=13;spacing=0;strokeColor=none;strokeOpacity=100;strokeWidth=0;image=https://images.lucid.app/images/3f3d8cd3-bbd5-49e6-a774-6782ef3bd830/content;imageAspect=0;lucidId=Pdk7ZPUqOgGq;fontFamily=Open Sans;" parent="1" vertex="1">
          <mxGeometry x="2085" y="70" width="63" height="63" as="geometry" />
        </mxCell>
        <mxCell id="MZZLFY8sG3nS4H8BUjIp-72" value="" style="html=1;overflow=block;blockSpacing=1;whiteSpace=wrap;shape=image;fontSize=13;spacing=0;strokeColor=none;strokeOpacity=100;strokeWidth=0;image=https://images.lucid.app/images/1f9a2c20-8541-4869-b5e7-ddf3277817d2/content;imageAspect=0;lucidId=Pdk7az09t2cO;fontFamily=Open Sans;" parent="1" vertex="1">
          <mxGeometry x="2173" y="71" width="53" height="61" as="geometry" />
        </mxCell>
        <mxCell id="MZZLFY8sG3nS4H8BUjIp-73" value="" style="html=1;overflow=block;blockSpacing=1;whiteSpace=wrap;shape=image;fontSize=13;spacing=0;strokeColor=none;strokeOpacity=100;shadow=1;strokeWidth=0;image=https://images.lucid.app/images/f82ef1b4-4bf4-4fff-bb0a-5fc3f4951691/content;imageAspect=0;lucidId=MDS73fd9W-3A;fontFamily=Open Sans;" parent="1" vertex="1">
          <mxGeometry x="1212" y="357" width="74" height="85" as="geometry" />
        </mxCell>
        <mxCell id="MZZLFY8sG3nS4H8BUjIp-74" value="" style="html=1;overflow=block;blockSpacing=1;whiteSpace=wrap;shape=image;fontSize=13;spacing=0;strokeColor=none;strokeOpacity=100;strokeWidth=0;image=https://images.lucid.app/images/ea5d0236-3669-4bad-81cd-d08b090ce651/content;imageAspect=0;lucidId=zFS7_ENFJBOi;fontFamily=Open Sans;" parent="1" vertex="1">
          <mxGeometry x="1185" y="1262" width="100" height="85" as="geometry" />
        </mxCell>
      </root>
    </mxGraphModel>
  </diagram>
</mxfile>
